<?xml version="1.0" standalone="no"?>
<!DOCTYPE svg PUBLIC "-//W3C//DTD SVG 20010904//EN"
 "http://www.w3.org/TR/2001/REC-SVG-20010904/DTD/svg10.dtd">
<svg version="1.0" xmlns="http://www.w3.org/2000/svg"
 width="512.000000pt" height="512.000000pt" viewBox="0 0 512.000000 512.000000"
 preserveAspectRatio="xMidYMid meet">

<g transform="translate(0.000000,512.000000) scale(0.100000,-0.100000)"
fill="#000000" stroke="none">
<path d="M1263 5041 c-92 -32 -168 -110 -193 -201 -5 -19 -10 -146 -10 -282
l0 -247 -343 -3 -343 -3 -59 -30 c-66 -34 -118 -93 -135 -153 -6 -23 -10 -228
-10 -553 0 -594 -1 -589 79 -669 78 -78 92 -80 478 -80 l333 0 0 -1255 c0
-1243 0 -1255 21 -1310 24 -65 87 -132 156 -166 l48 -24 1720 0 1720 0 49 24
c63 31 115 83 146 146 l25 50 3 1820 2 1820 -567 567 -568 568 -1250 0 c-1174
-1 -1253 -2 -1302 -19z m2460 -528 c2 -281 8 -440 15 -463 19 -59 68 -126 115
-159 84 -57 118 -61 569 -61 l408 0 0 -1752 c0 -1701 -1 -1754 -19 -1795 -12
-26 -35 -52 -62 -70 l-43 -28 -1679 -3 c-1137 -1 -1691 1 -1718 8 -83 23 -127
92 -132 205 -1 33 -1 592 1 1243 l2 1182 845 0 c822 0 846 1 898 20 64 24 121
78 151 140 21 44 21 56 21 585 l0 540 -23 47 c-13 26 -42 64 -64 84 -82 74
-17 69 -970 72 l-858 3 -2 177 c-4 299 3 352 56 401 55 52 15 50 1293 51
l1191 0 5 -427z m680 -561 c-186 -2 -361 0 -390 3 -65 8 -111 38 -143 95 l-25
45 -3 380 -3 380 450 -450 451 -450 -337 -3z m-1497 212 c15 -11 37 -33 48
-48 21 -27 21 -38 21 -549 0 -507 -1 -523 -20 -557 -12 -19 -36 -43 -55 -53
-33 -16 -110 -17 -1282 -15 l-1247 3 -30 29 c-17 16 -35 44 -41 62 -7 21 -11
209 -12 535 -1 536 -1 539 46 578 49 41 39 40 1318 38 1222 -2 1227 -2 1254
-23z"/>
<path d="M3183 2145 c-17 -12 -71 -164 -238 -666 -233 -700 -231 -690 -170
-705 58 -14 56 -19 288 679 227 682 227 683 181 701 -24 9 -38 7 -61 -9z"/>
<path d="M2225 1669 c-170 -82 -318 -157 -327 -166 -23 -21 -23 -55 0 -76 10
-9 158 -84 330 -167 333 -162 354 -168 381 -118 27 48 0 67 -277 201 l-253
122 260 127 c284 138 301 151 267 203 -11 17 -26 25 -44 25 -15 0 -166 -68
-337 -151z"/>
<path d="M3404 1795 c-34 -52 -17 -65 267 -203 l260 -127 -260 -127 c-284
-138 -301 -151 -267 -203 11 -17 25 -25 44 -25 28 0 632 288 664 317 23 21 23
55 0 77 -32 28 -636 316 -664 316 -19 0 -33 -8 -44 -25z"/>
<path d="M1597 3862 c-15 -16 -17 -52 -17 -300 0 -307 1 -312 58 -312 54 0 57
7 62 171 l5 151 74 -142 c117 -223 133 -223 250 0 l76 145 5 -153 c5 -164 8
-172 61 -172 57 0 59 11 59 311 0 232 -2 278 -16 297 -15 22 -57 30 -80 14 -6
-4 -58 -96 -116 -205 -58 -109 -109 -199 -113 -199 -5 0 -54 85 -110 189 -55
105 -106 198 -114 207 -18 21 -64 20 -84 -2z"/>
<path d="M2336 3858 c-14 -19 -16 -64 -16 -294 0 -253 1 -273 19 -295 19 -24
23 -24 191 -24 158 0 173 2 186 19 19 27 18 60 -4 79 -14 13 -44 17 -142 19
l-125 3 -5 248 c-5 269 -5 267 -62 267 -17 0 -33 -9 -42 -22z"/>
<path d="M546 3851 c-15 -16 -17 -50 -17 -296 1 -194 4 -282 12 -291 6 -8 26
-14 45 -14 53 0 64 26 64 147 l0 103 125 0 125 0 0 -113 c0 -125 5 -137 56
-137 62 0 64 12 64 312 0 255 -1 269 -20 288 -25 25 -62 26 -83 2 -14 -15 -17
-40 -17 -125 l0 -107 -125 0 -125 0 0 105 c0 92 -3 108 -20 125 -25 25 -62 26
-84 1z"/>
<path d="M1062 3844 c-13 -9 -22 -25 -22 -42 0 -50 13 -57 107 -62 l88 -5 3
-229 c1 -149 6 -234 13 -243 6 -7 26 -13 45 -13 60 0 64 16 64 267 l0 223 84
0 c76 0 86 2 100 22 22 31 20 45 -9 73 -24 25 -24 25 -237 25 -177 0 -217 -3
-236 -16z"/>
</g>
</svg>
